<svg width="32" height="32" viewBox="0 0 32 32" fill="none" xmlns="http://www.w3.org/2000/svg">
  <rect width="32" height="32" rx="4" fill="#2563EB"/>
  <path d="M22 12C22 10.9 21.1 10 20 10C18.9 10 18 10.9 18 12C18 13.1 18.9 14 20 14C21.1 14 22 13.1 22 12ZM14 12C14 10.9 13.1 10 12 10C10.9 10 10 10.9 10 12C10 13.1 10.9 14 12 14C13.1 14 14 13.1 14 12ZM16 20C13.33 20 8 21.34 8 24V26H24V24C24 21.34 18.67 20 16 20ZM10.54 24C11.11 23.53 13.25 22.5 16 22.5C18.76 22.5 20.89 23.53 21.46 24H10.54ZM16 16.5C18.21 16.5 20 14.71 20 12.5C20 10.29 18.21 8.5 16 8.5C13.79 8.5 12 10.29 12 12.5C12 14.71 13.79 16.5 16 16.5ZM16 11C16.83 11 17.5 11.67 17.5 12.5C17.5 13.33 16.83 14 16 14C15.17 14 14.5 13.33 14.5 12.5C14.5 11.67 15.17 11 16 11Z" fill="white"/>
</svg>